<svg xmlns="http://www.w3.org/2000/svg" viewBox="0 0 36.04 47.77"><defs><style>.cls-1{fill:#666;}.cls-2{fill:#fff;}</style></defs><g id="Ebene_2" data-name="Ebene 2"><g id="Icons"><rect class="cls-1" y="6.29" width="36.04" height="41.48" rx="3.98"/><path class="cls-1" d="M25.47,2.75H22.18C21.92,1.2,20.17,0,18,0s-3.9,1.2-4.17,2.75H10.57A1.71,1.71,0,0,0,8.85,4.46V7.09a1.72,1.72,0,0,0,1.72,1.72h14.9a1.72,1.72,0,0,0,1.72-1.72V4.46A1.71,1.71,0,0,0,25.47,2.75Z"/><rect class="cls-2" x="6.05" y="17.28" width="23.93" height="1.97" rx="0.99"/><rect class="cls-2" x="6.05" y="26.3" width="23.93" height="1.97" rx="0.99"/><rect class="cls-2" x="6.05" y="35.31" width="23.93" height="1.97" rx="0.99"/></g></g></svg>