<svg xmlns="http://www.w3.org/2000/svg" viewBox="0 0 37.04 48.27"><defs><style>.cls-1{fill:none;stroke:#666;stroke-miterlimit:10;}.cls-2{fill:#666;}</style></defs><g id="Ebene_2" data-name="Ebene 2"><g id="Icons"><rect class="cls-1" x="0.5" y="6.29" width="36.04" height="41.48" rx="3.98"/><path class="cls-2" d="M26,2.75H22.68C22.42,1.2,20.67,0,18.52,0s-3.9,1.2-4.17,2.75H11.07A1.71,1.71,0,0,0,9.35,4.46V7.09a1.72,1.72,0,0,0,1.72,1.72H26a1.72,1.72,0,0,0,1.72-1.72V4.46A1.71,1.71,0,0,0,26,2.75Z"/><rect class="cls-2" x="6.55" y="17.28" width="23.93" height="1.97" rx="0.99"/><rect class="cls-2" x="6.55" y="26.3" width="23.93" height="1.97" rx="0.99"/><rect class="cls-2" x="6.55" y="35.31" width="23.93" height="1.97" rx="0.99"/></g></g></svg>