<svg xmlns="http://www.w3.org/2000/svg" viewBox="0 0 42.26 26.36"><defs><style>.cls-1{fill:none;stroke:#666;stroke-miterlimit:10;}.cls-2{fill:#9dba51;}</style></defs><g id="Ebene_2" data-name="Ebene 2"><g id="Icons"><path class="cls-1" d="M23.27.5C13.07.5,4.79,6.12,4.79,13.05A9.3,9.3,0,0,0,6.55,18.4a5.54,5.54,0,0,1-1.2,2.87,17.24,17.24,0,0,1-4.7,3.64c-1.22.71,5.43,1.48,10.55.43a28,28,0,0,0,3.1-.73c2.67,1,5.69,1,9,1,10.21,0,18.49-5.62,18.49-12.55S33.48.5,23.27.5Z"/><rect class="cls-2" x="13.32" y="9.74" width="19.65" height="1.22"/><rect class="cls-2" x="13.32" y="13.88" width="12.67" height="1.22"/></g></g></svg>