<svg xmlns="http://www.w3.org/2000/svg" xmlns:xlink="http://www.w3.org/1999/xlink" width="135" height="135" viewBox="0 0 135 135">
  <defs>
    <filter id="Pfad_203" x="0" y="0" width="135" height="135" filterUnits="userSpaceOnUse">
      <feOffset dy="10" input="SourceAlpha"/>
      <feGaussianBlur stdDeviation="5" result="blur"/>
      <feFlood flood-opacity="0.161"/>
      <feComposite operator="in" in2="blur"/>
      <feComposite in="SourceGraphic"/>
    </filter>
  </defs>
  <g id="Gruppe_240" data-name="Gruppe 240" transform="translate(-216 -235.5)">
    <g transform="matrix(1, 0, 0, 1, 216, 235.5)" filter="url(#Pfad_203)">
      <g id="Pfad_203-2" data-name="Pfad 203" transform="translate(15 5)" fill="#626262">
        <path d="M 79 104.5 L 26 104.5 C 22.55730628967285 104.5 19.21785354614258 103.8258514404297 16.07439994812012 102.4962921142578 C 13.0379467010498 101.2119750976562 10.31081295013428 99.37326812744141 7.968773365020752 97.03122711181641 C 5.626746654510498 94.68918609619141 3.788026571273804 91.96206665039062 2.503706693649292 88.92559814453125 C 1.17414665222168 85.78215789794922 0.5 82.44270324707031 0.5 79 L 0.5 26 C 0.5 22.55730628967285 1.17414665222168 19.21785354614258 2.503706693649292 16.07439994812012 C 3.788026571273804 13.0379467010498 5.626746654510498 10.31081295013428 7.968773365020752 7.968773365020752 C 10.31081295013428 5.626746654510498 13.0379467010498 3.788026571273804 16.07439994812012 2.503706693649292 C 19.21785354614258 1.17414665222168 22.55730628967285 0.5 26 0.5 L 79 0.5 C 82.44270324707031 0.5 85.78215789794922 1.17414665222168 88.92559814453125 2.503706693649292 C 91.96206665039062 3.788026571273804 94.68918609619141 5.626746654510498 97.03122711181641 7.968773365020752 C 99.37326812744141 10.31081295013428 101.2119750976562 13.0379467010498 102.4962921142578 16.07439994812012 C 103.8258514404297 19.21785354614258 104.5 22.55730628967285 104.5 26 L 104.5 79 C 104.5 82.44270324707031 103.8258514404297 85.78215789794922 102.4962921142578 88.92559814453125 C 101.2119750976562 91.96206665039062 99.37326812744141 94.68918609619141 97.03122711181641 97.03122711181641 C 94.68918609619141 99.37326812744141 91.96206665039062 101.2119750976562 88.92559814453125 102.4962921142578 C 85.78215789794922 103.8258514404297 82.44270324707031 104.5 79 104.5 Z" stroke="none"/>
        <path d="M 26 1 C 22.62457275390625 1 19.35065460205078 1.660858154296875 16.26917266845703 2.964210510253906 C 13.29231262207031 4.223312377929688 10.61859893798828 6.026039123535156 8.32232666015625 8.32232666015625 C 6.026039123535156 10.61859893798828 4.223312377929688 13.29231262207031 2.964210510253906 16.26917266845703 C 1.660858154296875 19.35065460205078 1 22.62457275390625 1 26 L 1 79 C 1 82.37541198730469 1.660858154296875 85.64934539794922 2.964210510253906 88.73081207275391 C 4.223312377929688 91.70768737792969 6.026039123535156 94.38138580322266 8.32232666015625 96.67767333984375 C 10.61859893798828 98.97394561767578 13.29231262207031 100.7766876220703 16.26917266845703 102.0357818603516 C 19.35065460205078 103.3391418457031 22.62457275390625 104 26 104 L 79 104 C 82.37541198730469 104 85.64934539794922 103.3391418457031 88.73081207275391 102.0357818603516 C 91.70768737792969 100.7766876220703 94.38138580322266 98.97394561767578 96.67767333984375 96.67767333984375 C 98.97394561767578 94.38138580322266 100.7766876220703 91.70768737792969 102.0357818603516 88.73081207275391 C 103.3391418457031 85.64934539794922 104 82.37541198730469 104 79 L 104 26 C 104 22.62457275390625 103.3391418457031 19.35065460205078 102.0357818603516 16.26917266845703 C 100.7766876220703 13.29231262207031 98.97394561767578 10.61859893798828 96.67767333984375 8.32232666015625 C 94.38138580322266 6.026039123535156 91.70768737792969 4.223312377929688 88.73081207275391 2.964210510253906 C 85.64934539794922 1.660858154296875 82.37541198730469 1 79 1 L 26 1 M 26 0 L 79 0 C 93.35939788818359 0 105 11.64058685302734 105 26 L 105 79 C 105 93.35939788818359 93.35939788818359 105 79 105 L 26 105 C 11.64058685302734 105 0 93.35939788818359 0 79 L 0 26 C 0 11.64058685302734 11.64058685302734 0 26 0 Z" stroke="none" fill="#707070"/>
      </g>
    </g>
    <g id="Gruppe_195" data-name="Gruppe 195" transform="translate(184.626 202.846)">
      <path id="Pfad_206" data-name="Pfad 206" d="M118.672,58.624l-.586-.47L114.047,63.2a2.377,2.377,0,0,0-2,.777,2.053,2.053,0,0,0-.59,2.457l-9.683,12.087.586.469,9.71-12.121a2.305,2.305,0,0,0,2.117-.752,1.984,1.984,0,0,0,.524-2.544Z" fill="#9dba51"/>
      <path id="Pfad_204" data-name="Pfad 204" d="M117.039,68.242H80.789A1.413,1.413,0,0,0,79.7,70.558l8.642,10.384,9.484,11.395c.021.026.048.045.071.069v28.671H92.5a1.013,1.013,0,1,0,0,2.027h12.864a1.013,1.013,0,0,0,0-2.027h-5.4V92.365c.009-.01.02-.017.029-.028l9.483-11.395,8.642-10.384A1.413,1.413,0,0,0,117.039,68.242Zm-2.624,3.351L107.4,80.022l-7.7,9.25a1.147,1.147,0,0,1-1.763,0l-7.7-9.25-7.015-8.429a1.146,1.146,0,0,1,.881-1.88h29.427A1.147,1.147,0,0,1,114.415,71.593Z" fill="#f9d658"/>
      <path id="Pfad_205" data-name="Pfad 205" d="M98.82,74.059h9.694a.7.7,0,0,1,.581,1.148l-4.622,5.15L99.4,86.008a.793.793,0,0,1-1.161,0l-5.072-5.651-4.622-5.15a.7.7,0,0,1,.58-1.148Z" fill="#f9d658"/>
    </g>
  </g>
</svg>
