<svg xmlns="http://www.w3.org/2000/svg" xmlns:xlink="http://www.w3.org/1999/xlink" width="178" height="135" viewBox="0 0 178 135">
  <defs>
    <filter id="Pfad_219" x="0" y="0" width="178" height="135" filterUnits="userSpaceOnUse">
      <feOffset dy="10" input="SourceAlpha"/>
      <feGaussianBlur stdDeviation="5" result="blur"/>
      <feFlood flood-opacity="0.161"/>
      <feComposite operator="in" in2="blur"/>
      <feComposite in="SourceGraphic"/>
    </filter>
  </defs>
  <g id="Gruppe_241" data-name="Gruppe 241" transform="translate(-99 -443)">
    <g transform="matrix(1, 0, 0, 1, 99, 443)" filter="url(#Pfad_219)">
      <g id="Pfad_219-2" data-name="Pfad 219" transform="translate(15 5)" fill="#626262">
        <path d="M 111.3523788452148 104.5 L 36.64762115478516 104.5 C 31.74892044067383 104.5 26.99788093566895 103.8196563720703 22.52642059326172 102.4778823852539 C 18.21463966369629 101.1840209960938 14.34438037872314 99.33323669433594 11.02315998077393 96.97698211669922 C 7.714640140533447 94.62972259521484 5.119359970092773 91.90022277832031 3.309420108795166 88.86434173583984 C 1.445219993591309 85.73741912841797 0.5 82.4185791015625 0.5 79 L 0.5 26 C 0.5 22.5814208984375 1.445219993591309 19.26258087158203 3.309420108795166 16.13566017150879 C 5.119359970092773 13.09978008270264 7.714640140533447 10.37028026580811 11.02315998077393 8.023019790649414 C 14.34438037872314 5.666759967803955 18.21463966369629 3.815979957580566 22.52642059326172 2.522119998931885 C 26.99788093566895 1.180340051651001 31.74892044067383 0.5 36.64762115478516 0.5 L 111.3523788452148 0.5 C 116.2510833740234 0.5 121.0021362304688 1.180340051651001 125.4735794067383 2.522119998931885 C 129.7853851318359 3.815979957580566 133.6556396484375 5.666759967803955 136.9768524169922 8.023019790649414 C 140.2853851318359 10.37028026580811 142.8806457519531 13.09978008270264 144.6905822753906 16.13566017150879 C 146.5547790527344 19.26258087158203 147.5 22.5814208984375 147.5 26 L 147.5 79 C 147.5 82.4185791015625 146.5547790527344 85.73741912841797 144.6905822753906 88.86434173583984 C 142.8806457519531 91.90022277832031 140.2853851318359 94.62972259521484 136.9768524169922 96.97698211669922 C 133.6556396484375 99.33323669433594 129.7853851318359 101.1840209960938 125.4735794067383 102.4778823852539 C 121.0021362304688 103.8196563720703 116.2510833740234 104.5 111.3523788452148 104.5 Z" stroke="none"/>
        <path d="M 36.64762115478516 1 C 16.991455078125 1 1 12.21495819091797 1 26 L 1 79 C 1 92.78504180908203 16.991455078125 104 36.64762115478516 104 L 111.3523788452148 104 C 131.008544921875 104 147 92.78504180908203 147 79 L 147 26 C 147 12.21495819091797 131.008544921875 1 111.3523788452148 1 L 36.64762115478516 1 M 36.64762115478516 0 L 111.3523788452148 0 C 131.5923156738281 0 148 11.64060211181641 148 26 L 148 79 C 148 93.35939788818359 131.5923156738281 105 111.3523788452148 105 L 36.64762115478516 105 C 16.40769958496094 105 0 93.35939788818359 0 79 L 0 26 C 0 11.64060211181641 16.40769958496094 0 36.64762115478516 0 Z" stroke="none" fill="#707070"/>
      </g>
    </g>
    <g id="Gruppe_209" data-name="Gruppe 209" transform="translate(0 -29.5)">
      <g id="Gruppe_196" data-name="Gruppe 196" transform="translate(-185.025 433.559)">
        <path id="Pfad_207" data-name="Pfad 207" d="M399.068,63.175a.329.329,0,0,0-.058-.067l-14.017-9.034a.34.34,0,0,0-.407.027L355.858,78.108c-.007.006,0,.013-.011.019a1.125,1.125,0,0,0-.311,1.044c.092.58.508,1,.927.93s.683-.593.59-1.173a1.337,1.337,0,0,0-.18-.478L378.4,70.924,397.7,64.15a1.587,1.587,0,0,0,0,.371,1.07,1.07,0,1,0,2.059-.33A1.38,1.38,0,0,0,399.068,63.175Z" transform="translate(0 0)" fill="#f9d658"/>
        <path id="Pfad_208" data-name="Pfad 208" d="M400.478,79.249a1.762,1.762,0,0,1,.857-1.8,1.05,1.05,0,0,0,.466-1.082L399.779,63.73a1.059,1.059,0,0,0-1.4-.832L356.377,77.613a1.058,1.058,0,0,0-.7,1.166l.831,5.2a1.049,1.049,0,0,0,.78.882,1.763,1.763,0,0,1,.52,3.25,1.036,1.036,0,0,0-.467,1.074L358.981,99.4a1.1,1.1,0,0,0,1.452.86l5.733-2.009a1.7,1.7,0,0,1-.136-.435,1.756,1.756,0,0,1,3.127-1.351,1.063,1.063,0,0,0,1.194.32L378.6,93.9a1.147,1.147,0,0,0,.7-.771,1.747,1.747,0,0,1,2.658-.939,1.151,1.151,0,0,0,1.035.17l19.359-6.782a1.1,1.1,0,0,0,.724-1.214l-.444-2.784a1.051,1.051,0,0,0-.78-.883A1.76,1.76,0,0,1,400.478,79.249Z" transform="translate(0.017 1.006)" fill="#feecad"/>
        <circle id="Ellipse_1" data-name="Ellipse 1" cx="2.278" cy="2.278" r="2.278" transform="translate(387.944 74.901)" fill="#f9d658"/>
        <circle id="Ellipse_2" data-name="Ellipse 2" cx="1.355" cy="1.355" r="1.355" transform="translate(373.652 85.184)" fill="#f9d658"/>
        <circle id="Ellipse_3" data-name="Ellipse 3" cx="1.355" cy="1.355" r="1.355" transform="translate(380.291 75.355)" fill="#f9d658"/>
        <circle id="Ellipse_4" data-name="Ellipse 4" cx="1.355" cy="1.355" r="1.355" transform="translate(383.048 84.003)" fill="#f9d658"/>
        <circle id="Ellipse_5" data-name="Ellipse 5" cx="2.322" cy="2.322" r="2.322" transform="translate(362.84 89.154)" fill="#f9d658"/>
        <circle id="Ellipse_6" data-name="Ellipse 6" cx="1.819" cy="1.819" r="1.819" transform="translate(365.308 80.898)" fill="#f9d658"/>
        <circle id="Ellipse_7" data-name="Ellipse 7" cx="1.819" cy="1.819" r="1.819" transform="translate(393.204 82.528)" fill="#f9d658"/>
      </g>
      <g id="Gruppe_197" data-name="Gruppe 197" transform="translate(-186.588 440.981)">
        <path id="Pfad_209" data-name="Pfad 209" d="M399.474,84.088c-1.447-.353-5.257-1.214-7.375-1.027a6.943,6.943,0,0,0-4.011,2.224c.487-2.3.9-4.745.631-4.875-.515-.247-1.745-.774-1.428,1.689s-.951,7.18-.951,7.18c.039.07.476.3.713.088a20.919,20.919,0,0,0,.795-2.983,15.714,15.714,0,0,0,5.776.783c1.864-.129,4.772-1.869,5.929-2.606A.26.26,0,0,0,399.474,84.088Z" fill="#9dba51"/>
        <circle id="Ellipse_8" data-name="Ellipse 8" cx="12.197" cy="12.197" r="12.197" transform="translate(373.661 88.392)" fill="#f9d658"/>
      </g>
      <g id="Gruppe_199" data-name="Gruppe 199" transform="matrix(0.999, 0.035, -0.035, 0.999, -195.66, 414.753)">
        <path id="Pfad_210" data-name="Pfad 210" d="M343.991,85.706a16.57,16.57,0,0,1,9.831-2.22c4.362.857,9.012,5.525,11.171,12.579l4.652,15.2s3.665,11.19,4.418,15.092a38.679,38.679,0,0,1,.793,5.47c.079,1.942-1.15,2.656-2.775,1.9a20.635,20.635,0,0,1-4.656-3.134l-11.234-11.251L344.958,108.1a18.919,18.919,0,0,1-5.723-14.886C339.475,90.486,340.5,88.136,343.991,85.706Z" transform="translate(1.589 2.368)" fill="#feecad"/>
        <g id="Gruppe_198" data-name="Gruppe 198" transform="translate(326.588 64.62)">
          <path id="Pfad_211" data-name="Pfad 211" d="M341.3,90.863s-15.38-12.05-14.693-14.376,4.228-.845,6.976,2.326-4.6-13.423-2.8-14.163S340.827,77.438,344.1,77.227s.846-10.146,4.44-9.83,4.473,13.337,3.17,16.806C349.636,89.739,346.676,91.681,341.3,90.863Z" transform="translate(-326.588 -64.62)" fill="#527a3e"/>
          <path id="Pfad_212" data-name="Pfad 212" d="M342.133,89.687c-1.719-2.935-10.135-8.043-9.68-9.583s2.8-.56,4.619,1.54-3.044-8.887-1.855-9.377,6.648,8.467,8.817,8.327.56-6.718,2.939-6.507,1.9,8.681,2.1,11.126C349.44,89.78,342.722,90.692,342.133,89.687Z" transform="translate(-325.85 -63.657)" fill="#9dba51"/>
        </g>
        <rect id="Rechteck_629" data-name="Rechteck 629" width="1.321" height="8.501" rx="0.587" transform="matrix(0.5, 0.866, -0.866, 0.5, 365.806, 97.18)" fill="#f9d658"/>
        <rect id="Rechteck_630" data-name="Rechteck 630" width="1.321" height="8.501" rx="0.587" transform="translate(359.464 110.604) rotate(60)" fill="#f9d658"/>
        <rect id="Rechteck_631" data-name="Rechteck 631" width="1.321" height="8.501" rx="0.587" transform="translate(367.814 118.531) rotate(60)" fill="#f9d658"/>
      </g>
      <g id="Gruppe_208" data-name="Gruppe 208" transform="translate(142.972 426.012) rotate(7)">
        <path id="Pfad_206" data-name="Pfad 206" d="M117.739,58.6l-.554-.444-3.816,4.765a2.245,2.245,0,0,0-1.89.734,1.94,1.94,0,0,0-.557,2.321l-9.149,11.42.554.443L111.5,66.385a2.178,2.178,0,0,0,2-.71,1.874,1.874,0,0,0,.5-2.4Z" transform="translate(-1.236)" fill="#9dba51"/>
        <path id="Pfad_204" data-name="Pfad 204" d="M114.96,68.242H80.711a1.335,1.335,0,0,0-1.026,2.188l8.165,9.811L96.81,91.007c.02.025.045.043.067.065v27.089h-5.1a.958.958,0,1,0,0,1.915h12.154a.958.958,0,0,0,0-1.915h-5.1V91.034c.009-.009.019-.016.027-.026l8.96-10.766,8.165-9.811A1.335,1.335,0,0,0,114.96,68.242Zm-2.479,3.166-6.628,7.964L98.58,88.111a1.083,1.083,0,0,1-1.666,0l-7.273-8.739-6.628-7.964a1.083,1.083,0,0,1,.832-1.776h27.8A1.084,1.084,0,0,1,112.481,71.408Z" transform="translate(0 -0.557)" fill="#f9d658"/>
        <path id="Pfad_205" data-name="Pfad 205" d="M98.243,74.059H107.4a.659.659,0,0,1,.549,1.085l-4.367,4.866-4.792,5.339a.749.749,0,0,1-1.1,0L92.9,80.009l-4.367-4.866a.658.658,0,0,1,.548-1.085Z" transform="translate(-0.496 -0.878)" fill="#f9d658"/>
      </g>
    </g>
  </g>
</svg>
