<svg xmlns="http://www.w3.org/2000/svg" viewBox="0 0 41.92 42.17"><defs><style>.cls-1{fill:none;stroke:#626262;stroke-miterlimit:10;stroke-width:1.5px;}</style></defs><g id="Ebene_2" data-name="Ebene 2"><g id="Icons"><path class="cls-1" d="M40.47,14.28,32.84,8.84,21.93,1.06a1.68,1.68,0,0,0-1.94,0L9.08,8.84,1.46,14.28a1.67,1.67,0,0,0,1,3h2V39.47a1.94,1.94,0,0,0,1.94,2h8.85a1.94,1.94,0,0,0,1.94-2V33.79a3.84,3.84,0,0,1,7.68,0v5.68a2,2,0,0,0,1.95,2h8.84a2,2,0,0,0,1.95-2V17.32h2A1.68,1.68,0,0,0,40.47,14.28Z"/></g></g></svg>