<svg xmlns="http://www.w3.org/2000/svg" viewBox="0 0 103.88 103.88"><defs><style>.cls-1{fill:#4d4d4d;}.cls-2{fill:#9dba51;}</style></defs><g id="Ebene_2" data-name="Ebene 2"><g id="Icons"><rect class="cls-1" width="103.88" height="103.88" rx="14.18"/><path class="cls-2" d="M78.38,14.1H39.31a.79.79,0,0,0-.68.39l-19,33.06c-.22.37-.15,1,.28,1.06,1.11.09,4.31,0,4.31,0,.47,0,.82,0,1-.42L41.69,19.69a.79.79,0,0,1,.68-.39H76.81a1,1,0,0,0,.86-.54l1.56-3.31A.94.94,0,0,0,78.38,14.1Z"/><path class="cls-2" d="M92.92,55.24H57.72a.73.73,0,0,0-.65.42l-1.78,3.76a.72.72,0,0,0,.65,1H84.7a.78.78,0,0,1,.71,1.11l-2.18,4.6a.79.79,0,0,1-.71.45H65.85a.78.78,0,0,0-.72.45L63.88,69.7a.73.73,0,0,0,.65,1h15.3a.78.78,0,0,1,.71,1.11l-1.89,4a.77.77,0,0,1-.7.45H70.33a.72.72,0,0,0-.65.41l-1.27,2.68a.72.72,0,0,0,.65,1h6.2A.77.77,0,0,1,76,81.5l-1.88,4a.8.8,0,0,1-.71.45h-35L24.28,55.69a.9.9,0,0,0-.26-.36,1.88,1.88,0,0,0-.67-.09H10.14a.78.78,0,0,0-.78.79v3.63a.78.78,0,0,0,.78.79H20a.77.77,0,0,1,.7.44L34.74,90a2.07,2.07,0,0,0,1.87,1.18H75.67A2.09,2.09,0,0,0,77.54,90L93.63,56.36A.79.79,0,0,0,92.92,55.24Z"/></g></g></svg>