<?xml version="1.0" encoding="utf-8"?>
<!-- Generator: Adobe Illustrator 24.2.1, SVG Export Plug-In . SVG Version: 6.00 Build 0)  -->
<svg version="1.1" id="Ebene_1" xmlns="http://www.w3.org/2000/svg" xmlns:xlink="http://www.w3.org/1999/xlink" x="0px" y="0px"
	 viewBox="0 0 103.9 103.9" style="enable-background:new 0 0 103.9 103.9;" xml:space="preserve">
<style type="text/css">
	.st0{fill:#4D4D4D;}
	.st1{fill:#9DBA51;}
	.st2{fill:none;}
	.st3{font-family:'ArialRoundedMTBold';}
	.st4{font-size:14px;}
</style>
<g>
	<rect x="15.7" y="29.3" class="st0" width="72.4" height="24"/>
	<g id="Ebene_2_1_">
		<g id="Icons">
			<path class="st0" d="M19.6,30.4h15.7c1.6,0,3,1.3,3,3v15.7c0,1.6-1.3,3-3,3H19.6c-1.6,0-3-1.3-3-3V33.4
				C16.6,31.8,18,30.4,19.6,30.4z"/>
			<path class="st1" d="M33,33.4h-8.1c-0.1,0-0.1,0-0.1,0.1l-4,6.9c0,0.1,0,0.2,0.1,0.2c0.2,0,0.9,0,0.9,0c0.1,0,0.2,0,0.2-0.1
				l3.4-5.9c0-0.1,0.1-0.1,0.1-0.1h7.2c0.1,0,0.1,0,0.2-0.1l0.3-0.7C33.2,33.6,33.2,33.4,33,33.4C33,33.4,33,33.4,33,33.4z"/>
			<path class="st1" d="M36,42h-7.3c-0.1,0-0.1,0-0.1,0.1l-0.4,0.8c0,0.1,0,0.2,0.1,0.2c0,0,0,0,0.1,0h6c0.1,0,0.2,0.1,0.2,0.2
				c0,0,0,0,0,0.1l-0.5,1c0,0.1-0.1,0.1-0.1,0.1h-3.5c-0.1,0-0.1,0-0.2,0.1L30,45c0,0.1,0,0.2,0.1,0.2c0,0,0,0,0.1,0h3.2
				c0.1,0,0.2,0.1,0.2,0.2c0,0,0,0,0,0.1L33,46.2c0,0.1-0.1,0.1-0.1,0.1h-1.6c-0.1,0-0.1,0-0.1,0.1L30.9,47c0,0.1,0,0.2,0.1,0.2
				c0,0,0,0,0.1,0h1.3c0.1,0,0.2,0.1,0.2,0.1c0,0,0,0.1,0,0.1l-0.4,0.8c0,0.1-0.1,0.1-0.1,0.1h-7.3L21.7,42c0,0,0-0.1-0.1-0.1
				c0,0-0.1,0-0.1,0h-2.8c-0.1,0-0.2,0.1-0.2,0.2c0,0,0,0,0,0v0.8c0,0.1,0.1,0.2,0.2,0.2c0,0,0,0,0,0h2.1c0.1,0,0.1,0,0.1,0.1
				l2.9,6.1c0.1,0.2,0.2,0.2,0.4,0.2h8.1c0.2,0,0.3-0.1,0.4-0.2l3.4-7C36.2,42.1,36.2,42,36,42C36.1,42,36,42,36,42z"/>
		</g>
	</g>
	<rect x="38.7" y="36.1" class="st2" width="49.5" height="22.7"/>
	<text transform="matrix(1 0 0 1 38.6524 46.2428)" class="st1 st3 st4">Gastry</text>
</g>
</svg>
