<svg xmlns="http://www.w3.org/2000/svg" viewBox="0 0 25.06 25.41"><defs><style>.cls-1{fill:#fff;}</style></defs><g id="Ebene_2" data-name="Ebene 2"><g id="Icons"><path class="cls-1" d="M7.45,0A7.45,7.45,0,1,0,14.9,7.45,7.46,7.46,0,0,0,7.45,0Zm0,13.61a6.16,6.16,0,1,1,6.16-6.16A6.16,6.16,0,0,1,7.45,13.61Z"/><path class="cls-1" d="M24.77,23h0a1.63,1.63,0,0,0-.38-.36l-9.67-9.19a.51.51,0,0,0-.72,0l-.75.75a.5.5,0,0,0,0,.71l9.08,9.83a1.64,1.64,0,0,0,.29.3l0,0h0a1.5,1.5,0,0,0,2.45-1.17A1.53,1.53,0,0,0,24.77,23Z"/></g></g></svg>