<svg xmlns="http://www.w3.org/2000/svg" viewBox="0 0 23.42 35.33"><defs><style>.cls-1{fill:#666;}</style></defs><g id="Ebene_2" data-name="Ebene 2"><g id="Icons"><path class="cls-1" d="M11.71,16.66A11.81,11.81,0,0,0,0,28.57V30.4C0,37,23.42,37,23.42,30.4V28.57A11.81,11.81,0,0,0,11.71,16.66ZM22,29.87c0,5.78-20.59,5.78-20.59,0V28.26a10.39,10.39,0,0,1,10.3-10.48A10.39,10.39,0,0,1,22,28.26Z"/><path class="cls-1" d="M11.71,0a6.79,6.79,0,1,0,6.78,6.79A6.79,6.79,0,0,0,11.71,0Zm0,12.35a5.57,5.57,0,1,1,5.56-5.56A5.56,5.56,0,0,1,11.71,12.35Z"/></g></g></svg>