<svg id="Capa_1" enable-background="new 0 0 512.01 512.01" height="512" viewBox="0 0 512.01 512.01" width="512" xmlns="http://www.w3.org/2000/svg"><g><path d="m129.005 369.01h-34c-14.493 0-26.618 10.331-29.399 24.015-1.208-.023-.905-.015-35.601-.015-16.542 0-30 13.458-30 30v34c0 16.542 13.458 30 30 30 34.75 0 34.213.006 35.423-.011 2.384 14.175 14.735 25.011 29.577 25.011h34c16.542 0 30-13.458 30-30v-83c0-16.542-13.458-30-30-30z"/><path d="m104.005 95.01c25.916 0 47-21.084 47-47 0-12.497-4.811-24.396-13.545-33.508-18.533-19.334-48.373-19.339-66.91 0-8.734 9.111-13.545 21.011-13.545 33.508 0 25.916 21.084 47 47 47z"/><path d="m470.844 317.3c-39.912-21.572-93.211.317-93.744.541-7.642 3.204-16.43-.397-19.632-8.038-3.201-7.641.397-16.43 8.038-19.631 2.293-.961 48.494-19.907 94.334-8.856 34.267-31.252 52.165-67.086 52.165-105.305 0-74.439-61.01-135-136-135-4.07 0-8.029.129-11.902.359-31.629 3.491-56.444 20.659-73.869 51.19-15.543 27.233-19.313 55.259-19.349 55.539-.979 7.561-7.434 13.089-14.863 13.089-9.041 0-16.024-7.902-14.899-16.854 2.225-17.778 10.558-44.543 22.802-66.183-10.091-3.025-21.208-5.14-31.919-5.14-61.206 0-111 49.794-111 111 0 49.104 36.205 95.048 86.995 108.922 5.253-29.471 31.048-51.922 62.005-51.922 8.284 0 15 6.716 15 15s-6.716 15-15 15c-18.196 0-33 14.804-33 33s14.804 33 33 33c8.284 0 15 6.716 15 15s-6.716 15-15 15c-22.627 0-42.498-11.996-53.609-29.957-14.715 8.049-26.693 20.759-33.426 35.754 3.862 7.922 6.035 16.813 6.035 26.203 0 90.652.095 84.151-.225 88h219.225c58.535 0 105.987-48.167 103.931-106.638-6.886-30.845-20.691-52.047-41.093-63.073z"/></g></svg>