<svg xmlns="http://www.w3.org/2000/svg" width="111" height="111" viewBox="0 0 111 111">
  <g id="Group_216" data-name="Group 216" transform="translate(-283.886 -91.255)">
    <rect id="Rectangle_644" data-name="Rectangle 644" width="111" height="111" rx="14.182" transform="translate(283.886 91.255)" fill="#4d4d4d"/>
    <g id="Group_215" data-name="Group 215" transform="translate(293.886 106.319)">
      <path id="Path_221" data-name="Path 221" d="M366.3,105.353H324.551a.836.836,0,0,0-.723.418L303.48,141.092c-.23.4-.153,1.1.307,1.139,1.185.1,4.6.035,4.6.035.5,0,.882-.053,1.112-.452l17.6-30.486a.836.836,0,0,1,.723-.418h36.8a1.014,1.014,0,0,0,.916-.579l1.673-3.533A1.013,1.013,0,0,0,366.3,105.353Z" transform="translate(-292.552 -105.353)" fill="#9dba51"/>
      <path id="Path_222" data-name="Path 222" d="M382.535,146.5H344.922a.772.772,0,0,0-.7.441l-1.9,4.016a.771.771,0,0,0,.7,1.1h30.732a.834.834,0,0,1,.754,1.191l-2.327,4.913a.834.834,0,0,1-.754.478H353.6a.844.844,0,0,0-.766.483l-1.331,2.819a.771.771,0,0,0,.7,1.1h16.346a.835.835,0,0,1,.754,1.192l-2.013,4.25a.834.834,0,0,1-.754.478h-8.141a.773.773,0,0,0-.7.441l-1.355,2.86a.77.77,0,0,0,.7,1.1h6.62a.835.835,0,0,1,.754,1.192l-2.013,4.25a.834.834,0,0,1-.754.478H324.23l-15.04-32.3a1.05,1.05,0,0,0-.28-.389,2.062,2.062,0,0,0-.713-.091H294.079a.835.835,0,0,0-.834.835v3.888a.835.835,0,0,0,.834.836h10.575a.833.833,0,0,1,.754.477l14.955,31.052a2.216,2.216,0,0,0,2,1.254H364.1a2.215,2.215,0,0,0,2-1.259l17.194-35.891A.835.835,0,0,0,382.535,146.5Z" transform="translate(-293.245 -102.533)" fill="#9dba51"/>
    </g>
  </g>
</svg>
